<?xml version="1.0" encoding="utf-8"?><!-- Generator: Adobe Illustrator 27.4.1, SVG Export Plug-In . SVG Version: 6.00 Build 0)  --><svg xmlns="http://www.w3.org/2000/svg" xmlns:xlink="http://www.w3.org/1999/xlink" version="1.1" id="Layer_1643fab1b09ce5" x="0px" y="0px" viewBox="0 0 530.8 285.2" style="enable-background:new 0 0 530.8 285.2;" xml:space="preserve" aria-hidden="true" width="530px" height="285px"><defs><linearGradient class="cerosgradient" data-cerosgradient="true" id="CerosGradient_id788816eff" gradientUnits="userSpaceOnUse" x1="50%" y1="100%" x2="50%" y2="0%"><stop offset="0%" stop-color="#d1d1d1"/><stop offset="100%" stop-color="#d1d1d1"/></linearGradient><linearGradient/></defs>
<style type="text/css">
	.st0-643fab1b09ce5{fill:#169CD8;}
	.st1-643fab1b09ce5{fill:#5E225F;}
	.st2-643fab1b09ce5{fill:#0876A6;}
	.st3-643fab1b09ce5{fill:#381538;}
	.st4-643fab1b09ce5{fill:#515456;}
</style>
<g id="Linear643fab1b09ce5">
</g>
<g id="Stacked_00000129895910400395180760000008577341463319039143_643fab1b09ce5">
	<g>
		<g>
			<path class="st0-643fab1b09ce5" d="M-254.2,124c0,13.8,11.2,24.9,24.9,24.9h24.9V74.2h-49.8V124z"/>
			<path class="st1-643fab1b09ce5" d="M-204.4,99.1L-204.4,99.1h-24.9v49.8v24.9l24.9-24.9c13.8,0,24.9-11.2,24.9-24.9     C-179.4,110.3-190.6,99.1-204.4,99.1z"/>
			<polygon class="st2-643fab1b09ce5" points="-204.4,74.2 -204.4,99.1 -229.3,99.1    "/>
			<rect x="-229.3" y="99.1" class="st3-643fab1b09ce5" width="24.9" height="49.8"/>
		</g>
		<g>
			<path class="st4-643fab1b09ce5" d="M-249.1,195.3c-3.4,0-5.1-2-5.1-5v-7.6h2.4v7.6c0,1.8,0.9,3,2.8,3s2.8-1.2,2.8-3v-7.6h2.4v7.6     C-243.9,193.3-245.7,195.3-249.1,195.3z"/>
			<path class="st4-643fab1b09ce5" d="M-233.9,195.1l-5.7-8.5v8.5h-2.3v-12.4h2.5l5.6,8.4v-8.4h2.3v12.4H-233.9z"/>
			<path class="st4-643fab1b09ce5" d="M-229.3,195.1v-12.4h2.4v12.4H-229.3z"/>
			<path class="st4-643fab1b09ce5" d="M-218.6,195.1h-2.6l-4.3-12.4h2.5l3.2,9.5l3.2-9.5h2.4L-218.6,195.1z"/>
			<path class="st4-643fab1b09ce5" d="M-212.9,195.1v-12.4h9.3v2h-7v2.9h6.1v2h-6.1v3.4h7v2h-9.3V195.1z"/>
			<path class="st4-643fab1b09ce5" d="M-194.3,195.1l-2.2-4.7h-2.9v4.7h-2.4v-12.4h5.5c3.1,0,4.5,1.9,4.5,3.9c0,1.7-1,3-2.4,3.5l2.4,5.1     L-194.3,195.1L-194.3,195.1z M-196.3,184.7h-3.1v3.7h3.2c1.3,0,2.1-0.7,2.1-1.8C-194.1,185.5-194.9,184.7-196.3,184.7z"/>
			<path class="st4-643fab1b09ce5" d="M-181.5,194c-1,0.9-2.5,1.3-4.1,1.3c-1.4,0-2.8-0.3-3.9-1.3c-0.8-0.7-1.4-1.7-1.4-2.9h2.4     c0,0.6,0.3,1.2,0.7,1.5c0.6,0.5,1.4,0.7,2.2,0.7c0.9,0,1.8-0.2,2.3-0.7c0.3-0.3,0.5-0.6,0.5-1.2c0-0.9-0.7-1.3-1.6-1.5     c-0.9-0.2-2-0.2-2.9-0.3c-1.8-0.3-3.3-1.4-3.3-3.5c0-1,0.5-1.8,1.1-2.4c0.9-0.8,2.3-1.3,3.8-1.3c1.4,0,2.8,0.4,3.7,1.2     c0.8,0.7,1.3,1.6,1.3,2.6h-2.4c0-0.4-0.3-0.9-0.6-1.2c-0.4-0.4-1.3-0.7-2-0.7s-1.6,0.2-2.1,0.7c-0.3,0.3-0.4,0.6-0.4,1     c0,0.8,0.6,1.2,1.3,1.3c0.8,0.1,2,0.2,2.8,0.3c2,0.3,3.6,1.5,3.6,3.6C-180.4,192.6-180.9,193.4-181.5,194z"/>
			<path class="st4-643fab1b09ce5" d="M-178.8,195.1v-12.4h2.4v12.4H-178.8z"/>
			<path class="st4-643fab1b09ce5" d="M-168.4,184.8v10.3h-2.4v-10.3h-3.9v-2.1h10.1v2.1H-168.4z"/>
			<path class="st4-643fab1b09ce5" d="M-156.6,190.3v4.8h-2.4v-4.8l-4.5-7.6h2.6l3.2,5.4l3.2-5.4h2.5L-156.6,190.3z"/>
		</g>
		<g>
			<path class="st4-643fab1b09ce5" d="M-248.7,206.7h-2.8v4.5h-2.3v-12.4h5.2c3,0,4.6,1.6,4.6,4C-244,205.1-245.6,206.7-248.7,206.7z      M-248.8,200.7h-2.7v4h2.7c1.6,0,2.3-0.8,2.3-2C-246.4,201.5-247.2,200.7-248.8,200.7z"/>
			<path class="st4-643fab1b09ce5" d="M-234.2,210c-1,0.9-2.4,1.4-3.8,1.4s-2.8-0.5-3.8-1.4c-1.4-1.4-1.7-3-1.7-5s0.2-3.7,1.7-5.1     c1-0.9,2.4-1.4,3.8-1.4s2.8,0.5,3.8,1.4c1.4,1.4,1.7,3,1.7,5.1C-232.6,207-232.8,208.6-234.2,210z M-236,201.3     c-0.5-0.5-1.3-0.8-2.1-0.8c-0.8,0-1.6,0.3-2.1,0.8c-0.9,0.9-0.9,2.4-0.9,3.6c0,1.1,0,2.7,0.9,3.6c0.5,0.5,1.3,0.8,2.1,0.8     c0.8,0,1.6-0.3,2.1-0.8c0.9-0.9,0.9-2.4,0.9-3.6C-235,203.8-235,202.2-236,201.3z"/>
			<path class="st4-643fab1b09ce5" d="M-223.7,211.1l-2.2-4.7h-2.9v4.7h-2.4v-12.4h5.5c3.1,0,4.6,1.9,4.6,3.9c0,1.7-1,3-2.4,3.5l2.4,5.1h-2.6     V211.1z M-225.6,200.7h-3.2v3.7h3.2c1.4,0,2.1-0.7,2.1-1.8C-223.5,201.6-224.3,200.7-225.6,200.7z"/>
			<path class="st4-643fab1b09ce5" d="M-214.1,200.8v10.3h-2.4v-10.3h-3.9v-2.1h10.2v2.1C-210.2,200.8-214.1,200.8-214.1,200.8z"/>
			<path class="st4-643fab1b09ce5" d="M-200.4,210c-1,0.9-2.5,1.3-4.2,1.3c-1.4,0-2.9-0.4-3.9-1.3c-0.8-0.7-1.4-1.7-1.4-2.9h2.4     c0,0.6,0.3,1.2,0.7,1.5c0.6,0.5,1.4,0.7,2.2,0.7c0.9,0,1.8-0.2,2.3-0.7c0.3-0.3,0.5-0.6,0.5-1.2c0-0.9-0.7-1.3-1.6-1.5     c-0.9-0.2-2-0.2-2.9-0.3c-1.8-0.3-3.3-1.4-3.3-3.5c0-1,0.5-1.8,1.1-2.5c0.9-0.8,2.3-1.3,3.9-1.3c1.4,0,2.8,0.4,3.7,1.2     c0.8,0.7,1.3,1.6,1.3,2.7h-2.4c0-0.4-0.3-0.9-0.6-1.2c-0.4-0.4-1.3-0.7-2-0.7s-1.6,0.2-2.1,0.7c-0.3,0.3-0.4,0.6-0.4,1.1     c0,0.8,0.6,1.2,1.3,1.4c0.8,0.1,2,0.2,2.9,0.3c2,0.3,3.6,1.5,3.6,3.6C-199.3,208.6-199.8,209.4-200.4,210z"/>
			<path class="st4-643fab1b09ce5" d="M-186.8,211.1v-8.9l-3.4,8.7h-1.8l-3.4-8.8v9h-2.3v-12.4h3.2l3.4,8.9l3.5-8.9h3.1v12.4H-186.8z"/>
			<path class="st4-643fab1b09ce5" d="M-173.8,210c-1,0.9-2.4,1.4-3.8,1.4c-1.4,0-2.8-0.5-3.8-1.4c-1.4-1.4-1.7-3-1.7-5s0.2-3.7,1.7-5.1     c1-0.9,2.4-1.4,3.8-1.4c1.4,0,2.8,0.5,3.8,1.4c1.4,1.4,1.7,3,1.7,5.1C-172.1,207-172.4,208.6-173.8,210z M-175.5,201.3     c-0.5-0.5-1.3-0.8-2.1-0.8s-1.6,0.3-2.1,0.8c-0.9,0.9-0.9,2.4-0.9,3.6c0,1.1,0,2.7,0.9,3.6c0.5,0.5,1.3,0.8,2.1,0.8     c0.8,0,1.6-0.3,2.1-0.8c0.9-0.9,0.9-2.4,0.9-3.6C-174.6,203.8-174.6,202.2-175.5,201.3z"/>
			<path class="st4-643fab1b09ce5" d="M-165.5,211.4c-3.4,0-5.2-2-5.2-5v-7.7h2.4v7.6c0,1.8,0.9,3,2.8,3c1.9,0,2.8-1.2,2.8-3v-7.6h2.4v7.7     C-160.4,209.3-162.1,211.4-165.5,211.4z"/>
			<path class="st4-643fab1b09ce5" d="M-152.8,200.8v10.3h-2.4v-10.3h-3.9v-2.1h10.2v2.1C-148.9,200.8-152.8,200.8-152.8,200.8z"/>
			<path class="st4-643fab1b09ce5" d="M-139.9,211.1v-5.4h-5.4v5.4h-2.4v-12.4h2.4v4.9h5.4v-4.9h2.4v12.4H-139.9z"/>
		</g>
		<g>
			<path class="st4-643fab1b09ce5" d="M-145,194.2c-0.7,0.7-1.7,1-2.7,1s-2-0.3-2.7-1c-1-1-1.2-2.2-1.2-3.6c0-1.5,0.2-2.7,1.2-3.7     c0.7-0.7,1.7-1,2.7-1s2,0.3,2.7,1c1,1,1.2,2.2,1.2,3.7S-144,193.3-145,194.2z M-146.2,188c-0.4-0.4-1-0.6-1.5-0.6     s-1.1,0.2-1.5,0.6c-0.7,0.6-0.7,1.8-0.7,2.6s0,1.9,0.7,2.6c0.4,0.4,1,0.6,1.5,0.6c0.6,0,1.1-0.2,1.5-0.6c0.7-0.6,0.7-1.8,0.7-2.6     C-145.5,189.8-145.6,188.7-146.2,188z"/>
			<path class="st4-643fab1b09ce5" d="M-141,187.6v2.4h4.3v1.5h-4.3v3.6h-1.7v-9h6.6v1.5H-141z"/>
		</g>
	</g>
</g>
<g id="Linear_00000146484290676585743560000005370585057051698342_643fab1b09ce5">
</g>
<g>
	<g>
		<g>
			<path class="st0-643fab1b09ce5" d="M123.7,134.1c0,13.8,11.2,24.9,24.9,24.9h24.9V84.3h-49.8V134.1z"/>
			<path class="st1-643fab1b09ce5" d="M173.5,109.2L173.5,109.2h-24.9V159v24.9l24.9-24.9c13.8,0,24.9-11.2,24.9-24.9     C198.5,120.4,187.3,109.2,173.5,109.2z"/>
			<polygon class="st2-643fab1b09ce5" points="173.5,84.3 173.5,109.2 148.6,109.2    "/>
			<rect x="148.6" y="109.2" class="st3-643fab1b09ce5" width="24.9" height="49.8"/>
		</g>
	</g>
	<g>
		<g>
			<path class="st4-643fab1b09ce5" d="M221.3,131.2c-5.9,0-8.9-3.5-8.9-8.7v-13.3h4.2v13.3c0,3.1,1.6,5.2,4.9,5.2c3.3,0,4.9-2.1,4.9-5.2v-13.3h4.2     v13.3C230.4,127.7,227.2,131.2,221.3,131.2z"/>
			<path class="st4-643fab1b09ce5" d="M247.9,130.9l-10-14.9v14.9h-4v-21.7h4.4l9.8,14.7v-14.7h4v21.7H247.9z"/>
			<path class="st4-643fab1b09ce5" d="M255.9,130.9v-21.7h4.2v21.7H255.9z"/>
			<path class="st4-643fab1b09ce5" d="M274.6,130.9h-4.5l-7.5-21.7h4.4l5.6,16.6l5.6-16.6h4.2L274.6,130.9z"/>
			<path class="st4-643fab1b09ce5" d="M284.6,130.9v-21.7h16.3v3.5h-12.2v5.1h10.7v3.5h-10.7v5.9h12.2v3.5h-16.3V130.9z"/>
			<path class="st4-643fab1b09ce5" d="M317.1,130.9l-3.8-8.2h-5.1v8.2H304v-21.7h9.6c5.4,0,7.9,3.3,7.9,6.8c0,3-1.7,5.2-4.2,6.1l4.2,8.9h-4.4     V130.9z M313.6,112.7h-5.4v6.5h5.6c2.3,0,3.7-1.2,3.7-3.1C317.5,114.1,316.1,112.7,313.6,112.7z"/>
			<path class="st4-643fab1b09ce5" d="M339.5,129c-1.7,1.6-4.4,2.3-7.2,2.3c-2.4,0-4.9-0.5-6.8-2.3c-1.4-1.2-2.4-3-2.4-5.1h4.2     c0,1,0.5,2.1,1.2,2.6c1,0.9,2.4,1.2,3.8,1.2c1.6,0,3.1-0.3,4-1.2c0.5-0.5,0.9-1,0.9-2.1c0-1.6-1.2-2.3-2.8-2.6s-3.5-0.3-5.1-0.5     c-3.1-0.5-5.8-2.4-5.8-6.1c0-1.7,0.9-3.1,1.9-4.2c1.6-1.4,4-2.3,6.6-2.3c2.4,0,4.9,0.7,6.5,2.1c1.4,1.2,2.3,2.8,2.3,4.5h-4.2     c0-0.7-0.5-1.6-1-2.1c-0.7-0.7-2.3-1.2-3.5-1.2c-1.2,0-2.8,0.3-3.7,1.2c-0.5,0.5-0.7,1-0.7,1.7c0,1.4,1,2.1,2.3,2.3     c1.4,0.2,3.5,0.3,4.9,0.5c3.5,0.5,6.3,2.6,6.3,6.3C341.4,126.5,340.6,127.9,339.5,129z"/>
			<path class="st4-643fab1b09ce5" d="M344.2,130.9v-21.7h4.2v21.7H344.2z"/>
			<path class="st4-643fab1b09ce5" d="M362.4,112.9v18h-4.2v-18h-6.8v-3.7h17.7v3.7H362.4z"/>
			<path class="st4-643fab1b09ce5" d="M383.1,122.5v8.4h-4.2v-8.4l-7.9-13.3h4.5l5.6,9.4l5.6-9.4h4.4L383.1,122.5z"/>
		</g>
		<g>
			<path class="st4-643fab1b09ce5" d="M222,151.2h-4.9v7.9h-4v-21.7h9.1c5.2,0,8,2.8,8,7C230.2,148.4,227.4,151.2,222,151.2z M221.8,140.7h-4.7v7     h4.7c2.8,0,4-1.4,4-3.5C226,142.1,224.6,140.7,221.8,140.7z"/>
			<path class="st4-643fab1b09ce5" d="M247.4,156.9c-1.7,1.6-4.2,2.4-6.6,2.4c-2.4,0-4.9-0.9-6.6-2.4c-2.4-2.4-3-5.2-3-8.7s0.3-6.5,3-8.9     c1.7-1.6,4.2-2.4,6.6-2.4c2.4,0,4.9,0.9,6.6,2.4c2.4,2.4,3,5.2,3,8.9C250.2,151.7,249.8,154.5,247.4,156.9z M244.2,141.7     c-0.9-0.9-2.3-1.4-3.7-1.4c-1.4,0-2.8,0.5-3.7,1.4c-1.6,1.6-1.6,4.2-1.6,6.3c0,1.9,0,4.7,1.6,6.3c0.9,0.9,2.3,1.4,3.7,1.4     c1.4,0,2.8-0.5,3.7-1.4c1.6-1.6,1.6-4.2,1.6-6.3C246,146.1,246,143.3,244.2,141.7z"/>
			<path class="st4-643fab1b09ce5" d="M265.7,158.9l-3.8-8.2h-5.1v8.2h-4.2v-21.7h9.6c5.4,0,8,3.3,8,6.8c0,3-1.7,5.2-4.2,6.1l4.2,8.9h-4.5V158.9z      M262.4,140.7h-5.6v6.5h5.6c2.4,0,3.7-1.2,3.7-3.1C266.1,142.3,264.7,140.7,262.4,140.7z"/>
			<path class="st4-643fab1b09ce5" d="M282.5,140.9v18h-4.2v-18h-6.8v-3.7h17.8v3.7C289.3,140.9,282.5,140.9,282.5,140.9z"/>
			<path class="st4-643fab1b09ce5" d="M306.5,156.9c-1.7,1.6-4.4,2.3-7.3,2.3c-2.4,0-5.1-0.7-6.8-2.3c-1.4-1.2-2.4-3-2.4-5.1h4.2     c0,1,0.5,2.1,1.2,2.6c1,0.9,2.4,1.2,3.8,1.2c1.6,0,3.1-0.3,4-1.2c0.5-0.5,0.9-1,0.9-2.1c0-1.6-1.2-2.3-2.8-2.6     c-1.6-0.3-3.5-0.3-5.1-0.5c-3.1-0.5-5.8-2.4-5.8-6.1c0-1.7,0.9-3.1,1.9-4.4c1.6-1.4,4-2.3,6.8-2.3c2.4,0,4.9,0.7,6.5,2.1     c1.4,1.2,2.3,2.8,2.3,4.7h-4.2c0-0.7-0.5-1.6-1-2.1c-0.7-0.7-2.3-1.2-3.5-1.2c-1.2,0-2.8,0.3-3.7,1.2c-0.5,0.5-0.7,1-0.7,1.9     c0,1.4,1,2.1,2.3,2.4c1.4,0.2,3.5,0.3,5.1,0.5c3.5,0.5,6.3,2.6,6.3,6.3C308.4,154.5,307.5,155.9,306.5,156.9z"/>
			<path class="st4-643fab1b09ce5" d="M330.2,158.9v-15.6l-5.9,15.2h-3.1l-5.9-15.4v15.7h-4v-21.7h5.6l5.9,15.6l6.1-15.6h5.4v21.7H330.2z"/>
			<path class="st4-643fab1b09ce5" d="M353,156.9c-1.7,1.6-4.2,2.4-6.6,2.4c-2.4,0-4.9-0.9-6.6-2.4c-2.4-2.4-3-5.2-3-8.7s0.3-6.5,3-8.9     c1.7-1.6,4.2-2.4,6.6-2.4c2.4,0,4.9,0.9,6.6,2.4c2.4,2.4,3,5.2,3,8.9C356,151.7,355.4,154.5,353,156.9z M350,141.7     c-0.9-0.9-2.3-1.4-3.7-1.4c-1.4,0-2.8,0.5-3.7,1.4c-1.6,1.6-1.6,4.2-1.6,6.3c0,1.9,0,4.7,1.6,6.3c0.9,0.9,2.3,1.4,3.7,1.4     s2.8-0.5,3.7-1.4c1.6-1.6,1.6-4.2,1.6-6.3C351.6,146.1,351.6,143.3,350,141.7z"/>
			<path class="st4-643fab1b09ce5" d="M367.5,159.4c-5.9,0-9.1-3.5-9.1-8.7v-13.5h4.2v13.3c0,3.1,1.6,5.2,4.9,5.2s4.9-2.1,4.9-5.2v-13.3h4.2v13.5     C376.4,155.7,373.4,159.4,367.5,159.4z"/>
			<path class="st4-643fab1b09ce5" d="M389.7,140.9v18h-4.2v-18h-6.8v-3.7h17.8v3.7C396.5,140.9,389.7,140.9,389.7,140.9z"/>
			<path class="st4-643fab1b09ce5" d="M412.3,158.9v-9.4h-9.4v9.4h-4.2v-21.7h4.2v8.6h9.4v-8.6h4.2v21.7H412.3z"/>
		</g>
		<g>
			<path class="st4-643fab1b09ce5" d="M403.3,129.3c-1.2,1.2-3,1.7-4.7,1.7c-1.7,0-3.5-0.5-4.7-1.7c-1.7-1.7-2.1-3.8-2.1-6.3     c0-2.6,0.3-4.7,2.1-6.5c1.2-1.2,3-1.7,4.7-1.7c1.7,0,3.5,0.5,4.7,1.7c1.7,1.7,2.1,3.8,2.1,6.5S405.1,127.7,403.3,129.3z      M401.2,118.5c-0.7-0.7-1.7-1-2.6-1c-0.9,0-1.9,0.3-2.6,1c-1.2,1-1.2,3.1-1.2,4.5c0,1.4,0,3.3,1.2,4.5c0.7,0.7,1.7,1,2.6,1     c1,0,1.9-0.3,2.6-1c1.2-1,1.2-3.1,1.2-4.5C402.5,121.6,402.3,119.7,401.2,118.5z"/>
			<path class="st4-643fab1b09ce5" d="M410.3,117.8v4.2h7.5v2.6h-7.5v6.3h-3v-15.7h11.5v2.6H410.3z"/>
		</g>
	</g>
</g>
</svg>